<svg t="1722417561371" class="icon" viewBox="0 0 1024 1024" version="1.1"
  xmlns="http://www.w3.org/2000/svg" p-id="12088" width="200" height="200">
  <path d="M793 145H231c-47.4 0-86 38.6-86 86v562c0 47.4 38.6 86 86 86h562c47.4 0 86-38.6 86-86V231c0-47.4-38.6-86-86-86z m26 648c0 14.3-11.7 26-26 26H231c-14.3 0-26-11.7-26-26V231c0-14.3 11.7-26 26-26h562c14.3 0 26 11.7 26 26v562z" p-id="12089"></path>
  <path d="M676.2 612H531.8c-4.4 0-8 3.6-8 8v44c0 4.4 3.6 8 8 8h144.5c4.4 0 8-3.6 8-8v-44c-0.1-4.4-3.6-8-8.1-8zM347.7 345.8c-5-5-13.7-1.5-13.7 5.7v62.2c0 2.1 0.8 4.2 2.3 5.7L429 512l-92.7 92.7c-1.5 1.5-2.3 3.5-2.3 5.7v62.2c0 7.1 8.6 10.7 13.7 5.7L496.9 529c9.4-9.4 9.4-24.6 0-33.9L347.7 345.8z" p-id="12090"></path>
</svg>